<?xml version="1.0" encoding="utf-8"?>
<svg width="307.965" height="197.979" viewBox="0 0 307.965 197.979" fill="none" xmlns="http://www.w3.org/2000/svg">
  <path d="M299.175 143.531C298.896 144.019 298.622 144.5 298.354 144.974C311.607 165.262 312.536 189.986 292.355 165.975C272.175 141.965 227.433 119.763 218.355 117.969C212.842 116.88 198.965 124.475 187.535 130.73C180.143 134.776 173.774 138.261 171.355 138.474C165.196 139.016 152.316 132.39 155.855 127.204C170.506 125.289 171.312 118.741 178.854 106.471C129.834 90.6561 89.1396 121.769 80.8544 129.972C80.7439 130.082 80.6335 130.191 80.5233 130.3C72.3698 138.368 65.1054 145.556 74.8545 164.039C84.7353 182.771 79.9346 198.105 74.8545 197.978C69.7743 197.85 74.8174 181.277 47.8544 176.976C20.8916 172.675 0.854908 191.977 0.854908 191.977C0.854908 191.977 -3.20075 184.942 6.3549 165.975C15.9106 147.009 40.9066 148.3 47.8549 138.474C54.8031 128.648 63.2505 97.0474 92.3549 70.4689C121.459 43.8903 139.249 41.2126 141.854 28.9657C143.327 22.0435 137.037 15.6459 132.118 10.642C128.334 6.79276 125.36 3.76825 127.354 1.96405C136.041 -5.15323 168.822 7.80896 200.854 28.9658C208.326 33.4008 202.38 33.2759 194.288 33.1059C189.015 32.9951 182.829 32.8651 178.854 33.9662C240.11 36.2983 283.943 64.1326 298.354 93.2316C312.078 120.943 304.744 133.781 299.175 143.531ZM155.856 74.964C202.464 71.5743 280.856 124.964 280.856 124.964C280.856 124.964 287.996 117.566 272.355 104.964C256.715 92.3613 225.734 68.1574 171.855 62.4636C117.977 56.7698 70.3555 117.464 70.3555 117.464C70.3555 117.464 109.247 78.3536 155.856 74.964Z" fill="#808080" fill-rule="evenodd" />
</svg>